<mxfile host="65bd71144e">
    <diagram id="kTx3LZHXkj86DX5ikv6n" name="Page-1">
        <mxGraphModel dx="1781" dy="702" grid="1" gridSize="10" guides="1" tooltips="1" connect="1" arrows="1" fold="1" page="1" pageScale="1" pageWidth="850" pageHeight="1100" math="0" shadow="0">
            <root>
                <mxCell id="0"/>
                <mxCell id="1" parent="0"/>
                <mxCell id="18" style="edgeStyle=none;html=1;" parent="1" source="17" edge="1">
                    <mxGeometry relative="1" as="geometry">
                        <mxPoint x="80" y="680" as="targetPoint"/>
                    </mxGeometry>
                </mxCell>
                <mxCell id="17" value="" style="whiteSpace=wrap;html=1;" parent="1" vertex="1">
                    <mxGeometry x="-210" y="920" width="580" height="170" as="geometry"/>
                </mxCell>
                <mxCell id="2" value="Main.js" style="whiteSpace=wrap;html=1;" parent="1" vertex="1">
                    <mxGeometry x="20" y="150" width="120" height="60" as="geometry"/>
                </mxCell>
                <mxCell id="24" style="edgeStyle=none;html=1;entryX=0.5;entryY=1;entryDx=0;entryDy=0;" parent="1" source="3" target="15" edge="1">
                    <mxGeometry relative="1" as="geometry"/>
                </mxCell>
                <mxCell id="3" value="Harvestor.js" style="whiteSpace=wrap;html=1;" parent="1" vertex="1">
                    <mxGeometry x="20" y="460" width="120" height="60" as="geometry"/>
                </mxCell>
                <mxCell id="4" value="Plan.js" style="whiteSpace=wrap;html=1;" parent="1" vertex="1">
                    <mxGeometry x="230" y="975" width="120" height="60" as="geometry"/>
                </mxCell>
                <mxCell id="5" value="Potato.js" style="whiteSpace=wrap;html=1;" parent="1" vertex="1">
                    <mxGeometry x="80" y="940" width="120" height="60" as="geometry"/>
                </mxCell>
                <mxCell id="6" value="Sunflower.js" style="whiteSpace=wrap;html=1;" parent="1" vertex="1">
                    <mxGeometry x="-60" y="940" width="120" height="60" as="geometry"/>
                </mxCell>
                <mxCell id="7" value="Soybean.js" style="whiteSpace=wrap;html=1;" parent="1" vertex="1">
                    <mxGeometry x="-200" y="940" width="120" height="60" as="geometry"/>
                </mxCell>
                <mxCell id="8" value="Wheat.js" style="whiteSpace=wrap;html=1;" parent="1" vertex="1">
                    <mxGeometry x="80" y="1010" width="120" height="60" as="geometry"/>
                </mxCell>
                <mxCell id="9" value="Corn.js" style="whiteSpace=wrap;html=1;" parent="1" vertex="1">
                    <mxGeometry x="-60" y="1010" width="120" height="60" as="geometry"/>
                </mxCell>
                <mxCell id="10" value="Asparagus.js" style="whiteSpace=wrap;html=1;" parent="1" vertex="1">
                    <mxGeometry x="-200" y="1010" width="120" height="60" as="geometry"/>
                </mxCell>
                <mxCell id="13" value="Tractor.js" style="whiteSpace=wrap;html=1;" parent="1" vertex="1">
                    <mxGeometry x="20" y="750" width="120" height="60" as="geometry"/>
                </mxCell>
                <mxCell id="26" style="edgeStyle=none;html=1;entryX=0.5;entryY=1;entryDx=0;entryDy=0;" edge="1" parent="1" source="14" target="3">
                    <mxGeometry relative="1" as="geometry"/>
                </mxCell>
                <mxCell id="14" value="Field.js" style="whiteSpace=wrap;html=1;" parent="1" vertex="1">
                    <mxGeometry x="20" y="610" width="120" height="60" as="geometry"/>
                </mxCell>
                <mxCell id="25" style="edgeStyle=none;html=1;entryX=0.5;entryY=1;entryDx=0;entryDy=0;" parent="1" source="15" target="2" edge="1">
                    <mxGeometry relative="1" as="geometry"/>
                </mxCell>
                <mxCell id="15" value="Catalog.js" style="whiteSpace=wrap;html=1;" parent="1" vertex="1">
                    <mxGeometry x="20" y="320" width="120" height="60" as="geometry"/>
                </mxCell>
            </root>
        </mxGraphModel>
    </diagram>
</mxfile>